#!OML:ASF F:\VICON\USERDATA\INSTALL\rory3\rory3.ASF
:FULLY-SPECIFIED
:DEGREES
44
root 0.2618789737915544 17.622228919841206 22.596912574640573 0.6542967118764712 -2.9799309496768007 -3.8350107131643645
lfemur -28.296972389048058 -2.5649495573233816 -18.10844265631532
ltibia 31.510175859036043
lfoot 1.2080755534152101 -4.712773082310616
ltoes -3.8267715681618495
rfemur 13.938982794075201 3.0433099710413685 29.935145546957564
rtibia 63.75117539391463
rfoot 18.00355390447962 4.85279234485844
rtoes 4.322235303735097
lowerback 11.002772785331112 3.3783523434350364 5.050951569227687
upperback -0.9381223804010552 5.241463911566756 0.7291823616880135
thorax -6.9662919196328685 2.3579630218600482 -2.6874295365054213
lowerneck -18.537286585635876 -4.477882322725887 -1.5606525892190592
upperneck 17.660765114410182 -6.261656238993771 2.709823784149048
head 8.691026348359681 -2.750959277802281 0.43691850580117686
lclavicle -9.641662782700153e-16 1.5944636508659174e-15
lhumerus -56.56726416552485 2.7652253604239343 88.27335885905075
lradius 57.07040573194874
lwrist 13.861053601991316
lhand -23.268269069198315 14.957327882505819
lfingers 7.125019999999999
lthumb 3.183874164414861 44.917940487826726
rclavicle -9.641662782700153e-16 1.5944636508659174e-15
rhumerus -31.683966520563608 0.08629746501464108 -90.42892114174121
rradius 72.85073717663225
rwrist -4.489922938718741
rhand -17.94144922181961 31.837592151499926
rfingers 7.125019999999999
rthumb 8.326589227883757 2.133670761250899
45
root 0.3852065860740715 17.778353355645226 23.77750476089878 -0.33742363574003287 -3.3120355316686796 -2.3566761298533376
lfemur -24.504708086105715 -2.154182812088332 -21.16855195618588
ltibia 34.22834378823198
lfoot -1.6162221956476868 -4.5044401638536815
ltoes -2.3066418248666105
rfemur 4.8109431308901165 1.4972433908926683 26.867577172414688
rtibia 79.7157852657032
rfoot 27.766736897037365 2.754846830757117
rtoes 16.2620786516437
lowerback 11.545644600069716 3.2281882614420048 3.3438243114245125
upperback -0.781719316256658 4.834764645769083 0.2554380033346597
thorax -7.151010558040182 2.2023687245397374 -2.076055164989368
lowerneck -18.47870623284039 -4.158317385530674 -1.6837849076709488
upperneck 17.686028093740436 -5.834622490247187 2.7364038889425513
head 8.700673110834643 -2.5447858856103895 0.4964281868002017
lclavicle -1.4316481744235843e-15 1.266701309993565e-15
lhumerus -55.70265364381959 2.181165044901113 88.28312693317261
lradius 57.36184565617394
lwrist 15.399418832825008
lhand -23.922323590198115 14.466898813944049
lfingers 7.125019999999999
lthumb 2.552210657568677 44.42641478168817
rclavicle -1.4316481744235843e-15 1.266701309993565e-15
rhumerus -33.75216618988571 -1.974612698800096 -89.97372678860843
rradius 71.09363914897651
rwrist -3.4575298069671643
rhand -17.474684287174718 31.319743142762672
rfingers 7.125019999999999
rthumb 8.777108166480726 1.609875471341768
46
root 0.4520947678523128 17.882627634825297 24.40095236440149 -1.2142042493091991 -3.658826565604146 -1.1561410207476759
lfemur -19.983137933039167 -2.430678074923187 -23.848287763000886
ltibia 34.217394670636544
lfoot -5.361204667940862 -3.258510022346883
ltoes -1.343117943975149
rfemur -6.459441898006338 -0.3630357749725861 24.274680768089066
rtibia 93.09471065445709
rfoot 27.449503993525855 -1.5118681534030216
rtoes 21.85723306507844
lowerback 12.151428528372284 2.835932112025346 1.5939015411873503
upperback -0.4875045380563118 4.099935910565623 -0.041327978285033984
thorax -7.300803043863697 1.897987964363795 -1.3366764649244238
lowerneck -18.535976755592472 -3.603847003102331 -1.7754802075841716
upperneck 17.496720650918615 -5.061931972220714 2.581097632621495
head 8.650813310930191 -2.1920850644372094 0.5197931228365402
lclavicle -2.3953239930185436e-15 5.910459591328261e-16
lhumerus -53.74310038589516 0.644377426103798 88.73147526700437
lradius 58.30798437375127
lwrist 16.99646183656175
lhand -25.215614866772015 12.912159989058747
lfingers 7.125019999999999
lthumb 1.30324523108974 42.875814321020634
rclavicle -2.3953239930185436e-15 5.910459591328261e-16
rhumerus -35.46324307147375 -4.00737873770535 -89.71406241617369
rradius 69.10998167093338
rwrist -2.30216657808969
rhand -17.027013512551548 30.843097361022405
rfingers 7.125019999999999
rthumb 9.20919171592741 1.0989801854567212
47
root 0.48665842296833167 17.946067282957646 25.878002727864132 -1.8116550404968805 -3.204179294434657 -0.12327150571392043
lfemur -14.395903398921678 -2.783965785122872 -25.62727845764651
ltibia 34.56907106831028
lfoot -8.52020140450042 -1.7035374202296016
ltoes -0.2633628753784629
rfemur -16.57848809236834 -2.1848577857147298 22.863024152613896
rtibia 102.62085638745738
rfoot 19.579107296470205 -4.981980878630014
rtoes 20.310821644423953
lowerback 12.706373365752333 2.2881460098724773 0.30532547217253425
upperback -0.1063901113230574 3.194882842278152 -0.05963133341827165
thorax -7.338541095677543 1.508702191412717 -0.3535686111875611
lowerneck -18.447830355217853 -2.9957420512101103 -1.823652923002848
upperneck 17.396602075869982 -4.1839162330390804 2.364377467701545
head 8.60834909112047 -1.8063025149436365 0.5391522196145346
lclavicle -2.089437022135482e-15 8.055103712053778e-16
lhumerus -49.986123279477695 -1.1295236827085215 89.34254131688438
lradius 59.66564314833927
lwrist 17.732486895616617
lhand -25.908405743217777 11.927906294178122
lfingers 7.125019999999999
lthumb 0.634229294487106 41.89639072627835
rclavicle -2.089437022135482e-15 8.055103712053778e-16
rhumerus -36.69189598924394 -5.537241647337388 -89.3994090665669
rradius 67.66114898500076
rwrist -1.1123458491138227
rhand -16.680359988120166 30.560054816209163
rfingers 7.125019999999999
rthumb 9.543729115823648 0.7731170804995771
48
root 0.494947097888928 17.9326840025554 26.65615073083326 -2.0457371260108936 -2.2605777043880617 0.5451103541247724
lfemur -9.68008656372732 -3.158261242337998 -26.970986208669103
ltibia 34.45688342261791
lfoot -11.970229794135323 -0.4568378694803017
ltoes 0.4089382160483428
rfemur -25.944448483428772 -3.8299811293184165 22.18040813482335
rtibia 104.46360293820933
rfoot 9.202641631704678 -6.7612953369244915
rtoes 14.439019207409284
lowerback 13.136490333770158 1.5819670583089982 -0.7532981496198417
upperback 0.19444014443522145 2.095689924771956 0.07674758920359848
thorax -7.358182770259032 1.025862352241023 0.5863788938125067
lowerneck -18.306504931839648 -2.596585274908116 -1.980325981679464
upperneck 17.372881104581307 -3.5660683247733123 2.2136185453340946
head 8.572464163449522 -1.5460094514857539 0.5804004053611665
lclavicle -2.11216083357765e-15 7.895781782421319e-16
lhumerus -45.21877488284992 -3.5817420056156086 89.8001098065198
lradius 60.948235175874586
lwrist 17.912194256486654
lhand -26.029150230429327 11.773851531889873
lfingers 7.125019999999999
lthumb 0.5176488087916328 41.74560398303853
rclavicle -2.11216083357765e-15 7.895781782421319e-16
rhumerus -38.18966368401362 -6.537730838681039 -89.13350162578428
rradius 66.80345369159917
rwrist -0.6633121061285256
rhand -16.561040668594757 30.379312964051092
rfingers 7.125019999999999
rthumb 9.658818246173974 0.6059109022473338
49
root 0.5007109722754967 17.85497857786999 27.410683040638723 -1.7735521365045668 -1.1525878396296767 1.1263540744115397
lfemur -5.206118858502074 -3.3300835166063862 -27.982759518900536
ltibia 33.85342932261678
lfoot -15.136511205457115 0.5468597328332909
ltoes 0.8241572699699091
rfemur -33.529132482263606 -4.857651824915891 21.841907443286036
rtibia 98.81991455598047
rfoot 1.739798736094166 -7.58789755195279
rtoes 8.147770508014313
lowerback 13.481792645808593 0.8954897074625885 -1.653356042447627
upperback 0.33232503713645717 1.0428108100533044 0.2849081798103279
thorax -7.405481249632283 0.5602163710537772 1.512960115553837
lowerneck -18.250941522889562 -2.4884045989771093 -2.259072670764303
upperneck 17.278232937688202 -3.3347365119796137 2.282213172913044
head 8.5294600173565 -1.4563167744722705 0.6765260998617459
lclavicle -1.9616591376609925e-15 8.95098385923668e-16
lhumerus -39.838560452391704 -6.577074493232295 90.13283436803111
lradius 62.60522907627935
lwrist 18.449435625631974
lhand -25.995521253356692 12.118984562688865
lfingers 7.125019999999999
lthumb 0.5501304221376264 42.09356672823993
rclavicle -1.9616591376609925e-15 8.95098385923668e-16
rhumerus -39.830358784085895 -6.723252153390895 -88.87095882080594
rradius 66.77642741690084
rwrist -1.128332704680945
rhand -16.66375306329658 30.464862460095226
rfingers 7.125019999999999
rthumb 9.559647897629779 0.706523455860058
50
root 0.4921992490422041 17.7639984472574 28.46529648136282 -1.108906096322815 -0.07668728233035649 1.6993709179972192
lfemur -0.8535272893836652 -3.09306201150828 -28.866025800462403
ltibia 31.80656499616409
lfoot -17.63507652918555 1.0379679052952446
ltoes 0.637363934481689
rfemur -38.73508233691358 -4.792585601053822 21.17863887929535
rtibia 86.50608333053759
rfoot -1.5131347900423393 -9.366481346473675
rtoes 3.2289547866469994
lowerback 13.549455307961392 0.31355687175506325 -2.5546438714090307
upperback 0.3199324549037346 0.14097344727913752 0.46266286446495
thorax -7.415191032381916 0.16204291479862626 2.35523733309886
lowerneck -18.327225780026072 -2.5648613293073588 -2.556821391106028
upperneck 17.004082052206538 -3.3774030851841563 2.4906344564130665
head 8.455302348481862 -1.477103816708421 0.7899413155704744
lclavicle -1.9551782836971e-15 8.996422597211575e-16
lhumerus -34.68453961939483 -9.607782380097671 90.28474940350951
lradius 64.811386411277
lwrist 19.38995090986751
lhand -25.96117827005088 12.692556459098832
lfingers 7.125019999999999
lthumb 0.5832729090283888 42.66958543716236
rclavicle -1.9551782836971e-15 8.996422597211575e-16
rhumerus -41.45675102903594 -6.4164345748780525 -88.76226881313403
rradius 67.1993828416585
rwrist -2.046191474047218
rhand -16.775565034614974 30.759337066217054
rfingers 7.125019999999999
rthumb 9.45169134261666 1.0190050664362886
